<svg xmlns="http://www.w3.org/2000/svg" xmlns:xlink="http://www.w3.org/1999/xlink" version="1.1" data-diagram-type="ACTIVITY" style="width:1355px;height:1430px;background:#FFFFFF;" width="1355px" height="1430px" viewBox="0 0 1355 1430" zoomAndPan="magnify" preserveAspectRatio="none" contentStyleType="text/css"><?plantuml 1.2026.7beta8?><defs/><g font-family="sans-serif" lengthAdjust="spacing"><g class="title" data-source-line="2"><text x="437.374" y="35.421" fill="#000" font-size="22" textLength="478.597" font-weight="700" font-family="Verdana">Quy trình tạo và cập nhật bộ flashcard</text></g><rect x="15" y="59.354" width="1318.344" height="20.953" fill="#FFF" style="stroke:#FFF;stroke-width:1;"/><ellipse cx="154.164" cy="95.308" rx="10" ry="10" fill="#FFF" style="stroke:#000;stroke-width:1;"/><rect x="63.577" y="125.308" width="181.174" height="33.969" fill="#FFF" style="stroke:#000;stroke-width:1;" rx="12.5" ry="12.5"/><text x="73.577" y="146.446" fill="#000" font-size="12" textLength="161.174" font-family="Verdana">Mở danh sách bộ flashcard</text><rect x="21" y="179.276" width="266.328" height="33.969" fill="#FFF" style="stroke:#000;stroke-width:1;" rx="12.5" ry="12.5"/><text x="31" y="200.415" fill="#000" font-size="12" textLength="246.328" font-family="Verdana">Chọn tạo bộ mới hoặc quản lý bộ hiện có</text><rect x="28.679" y="613.12" width="250.971" height="33.969" fill="#FFF" style="stroke:#000;stroke-width:1;" rx="12.5" ry="12.5"/><text x="38.679" y="634.259" fill="#000" font-size="12" textLength="230.971" font-family="Verdana">Nhập thông tin bộ và nội dung các thẻ</text><rect x="91.175" y="667.089" width="125.979" height="33.969" fill="#FFF" style="stroke:#000;stroke-width:1;" rx="12.5" ry="12.5"/><text x="101.175" y="688.228" fill="#000" font-size="12" textLength="105.979" font-family="Verdana">Chọn lưu thay đổi</text><rect x="66.858" y="938.674" width="174.611" height="33.969" fill="#FFF" style="stroke:#000;stroke-width:1;" rx="12.5" ry="12.5"/><text x="76.858" y="959.813" fill="#000" font-size="12" textLength="154.611" font-family="Verdana">Sửa thông tin chưa hợp lệ</text><rect x="108.601" y="992.643" width="91.127" height="33.969" fill="#FFF" style="stroke:#000;stroke-width:1;" rx="12.5" ry="12.5"/><text x="118.601" y="1013.782" fill="#000" font-size="12" textLength="71.127" font-family="Verdana">Chọn lưu lại</text><rect x="105.896" y="1338.456" width="96.535" height="33.969" fill="#FFF" style="stroke:#000;stroke-width:1;" rx="12.5" ry="12.5"/><text x="115.896" y="1359.594" fill="#000" font-size="12" textLength="76.535" font-family="Verdana">Xem kết quả</text><ellipse cx="154.164" cy="1403.424" rx="11" ry="11" fill="none" style="stroke:#000;stroke-width:1;"/><ellipse cx="154.164" cy="1403.424" rx="6" ry="6" fill="#FFF" style="stroke:#000;stroke-width:1;"/><line x1="15" y1="59.354" x2="15" y2="1414.424" style="stroke:#000;stroke-width:1;"/><rect x="550.298" y="233.245" width="207.945" height="33.969" fill="#FFF" style="stroke:#000;stroke-width:1;" rx="12.5" ry="12.5"/><text x="560.298" y="254.384" fill="#000" font-size="12" textLength="187.945" font-family="Verdana">Gửi yêu cầu mở trình chỉnh sửa</text><rect x="297.328" y="429.183" width="236.984" height="33.969" fill="#FFF" style="stroke:#000;stroke-width:1;" rx="12.5" ry="12.5"/><text x="307.328" y="450.321" fill="#000" font-size="12" textLength="216.984" font-family="Verdana">Thông báo không có quyền truy cập</text><ellipse cx="415.82" cy="494.151" rx="11" ry="11" fill="none" style="stroke:#000;stroke-width:1;"/><ellipse cx="415.82" cy="494.151" rx="6" ry="6" fill="#FFF" style="stroke:#000;stroke-width:1;"/><rect x="574.075" y="559.151" width="160.391" height="33.969" fill="#FFF" style="stroke:#000;stroke-width:1;" rx="12.5" ry="12.5"/><text x="584.075" y="580.29" fill="#000" font-size="12" textLength="140.391" font-family="Verdana">Hiển thị trình chỉnh sửa</text><rect x="569.941" y="721.058" width="168.658" height="33.969" fill="#FFF" style="stroke:#000;stroke-width:1;" rx="12.5" ry="12.5"/><text x="579.941" y="742.196" fill="#000" font-size="12" textLength="148.658" font-family="Verdana">Gửi dữ liệu đến hệ thống</text><rect x="549.211" y="884.706" width="210.119" height="33.969" fill="#FFF" style="stroke:#000;stroke-width:1;" rx="12.5" ry="12.5"/><text x="559.211" y="905.844" fill="#000" font-size="12" textLength="190.119" font-family="Verdana">Hiển thị nội dung cần chỉnh sửa</text><rect x="602.979" y="1046.612" width="102.582" height="33.969" fill="#FFF" style="stroke:#000;stroke-width:1;" rx="12.5" ry="12.5"/><text x="612.979" y="1067.75" fill="#000" font-size="12" textLength="82.582" font-family="Verdana">Gửi lại dữ liệu</text><rect x="565.444" y="1230.518" width="177.652" height="33.969" fill="#FFF" style="stroke:#000;stroke-width:1;" rx="12.5" ry="12.5"/><text x="575.444" y="1251.657" fill="#000" font-size="12" textLength="157.652" font-family="Verdana">Thông báo lưu thành công</text><rect x="544.313" y="1284.487" width="219.916" height="33.969" fill="#FFF" style="stroke:#000;stroke-width:1;" rx="12.5" ry="12.5"/><text x="554.313" y="1305.625" fill="#000" font-size="12" textLength="199.916" font-family="Verdana">Hiển thị bộ flashcard đã cập nhật</text><line x1="291.328" y1="59.354" x2="291.328" y2="1414.424" style="stroke:#000;stroke-width:1;"/><polygon points="1000.779,287.214,1111.912,287.214,1123.912,299.214,1111.912,311.214,1000.779,311.214,988.779,299.214,1000.779,287.214" fill="#FFF" style="stroke:#000;stroke-width:1;stroke-linejoin:miter;stroke-miterlimit:10;"/><text x="1000.779" y="303.022" fill="#000" font-size="11" textLength="111.133" font-family="Verdana">Chỉnh sửa bộ đã có?</text><text x="974.368" y="296.62" fill="#000" font-size="11" textLength="14.411" font-family="Verdana">Có</text><text x="1123.912" y="296.62" fill="#000" font-size="11" textLength="34.869" font-family="Verdana">Không</text><rect x="780.654" y="331.214" width="193.291" height="33.969" fill="#FFF" style="stroke:#000;stroke-width:1;" rx="12.5" ry="12.5"/><text x="790.654" y="352.353" fill="#000" font-size="12" textLength="173.291" font-family="Verdana">Kiểm tra bộ và quyền sở hữu</text><polygon points="820.098,385.183,934.502,385.183,946.502,397.183,934.502,409.183,820.098,409.183,808.098,397.183,820.098,385.183" fill="#FFF" style="stroke:#000;stroke-width:1;stroke-linejoin:miter;stroke-miterlimit:10;"/><text x="820.098" y="400.991" fill="#000" font-size="11" textLength="114.404" font-family="Verdana">Có quyền chỉnh sửa?</text><text x="773.229" y="394.588" fill="#000" font-size="11" textLength="34.869" font-family="Verdana">Không</text><text x="946.502" y="394.588" fill="#000" font-size="11" textLength="14.411" font-family="Verdana">Có</text><rect x="890.962" y="429.183" width="222.336" height="33.969" fill="#FFF" style="stroke:#000;stroke-width:1;" rx="12.5" ry="12.5"/><text x="900.962" y="450.321" fill="#000" font-size="12" textLength="202.336" font-family="Verdana">Tải thông tin bộ và danh sách thẻ</text><rect x="1143.298" y="331.214" width="184.186" height="33.969" fill="#FFF" style="stroke:#000;stroke-width:1;" rx="12.5" ry="12.5"/><text x="1153.298" y="352.353" fill="#000" font-size="12" textLength="164.186" font-family="Verdana">Khởi tạo dữ liệu cho bộ mới</text><polygon points="1056.345,515.151,1068.345,527.151,1056.345,539.151,1044.345,527.151,1056.345,515.151" fill="#FFF" style="stroke:#000;stroke-width:1;stroke-linejoin:miter;stroke-miterlimit:10;"/><rect x="920.832" y="775.026" width="271.027" height="33.969" fill="#FFF" style="stroke:#000;stroke-width:1;" rx="12.5" ry="12.5"/><text x="930.832" y="796.165" fill="#000" font-size="12" textLength="251.027" font-family="Verdana">Kiểm tra quyền sở hữu và dữ liệu đầu vào</text><rect x="959.934" y="1100.581" width="192.822" height="33.969" fill="#FFF" style="stroke:#000;stroke-width:1;" rx="12.5" ry="12.5"/><text x="969.934" y="1121.719" fill="#000" font-size="12" textLength="172.822" font-family="Verdana">Kiểm tra lại quyền và dữ liệu</text><polygon points="1015.281,828.995,1097.41,828.995,1109.41,840.995,1097.41,852.995,1015.281,852.995,1003.281,840.995,1015.281,828.995" fill="#FFF" style="stroke:#000;stroke-width:1;stroke-linejoin:miter;stroke-miterlimit:10;"/><text x="1060.345" y="863.206" fill="#000" font-size="11" textLength="34.869" font-family="Verdana">Không</text><text x="1015.281" y="844.803" fill="#000" font-size="11" textLength="82.129" font-family="Verdana">Dữ liệu hợp lệ?</text><text x="988.87" y="838.401" fill="#000" font-size="11" textLength="14.411" font-family="Verdana">Có</text><rect x="942.769" y="1176.549" width="227.152" height="33.969" fill="#FFF" style="stroke:#000;stroke-width:1;" rx="12.5" ry="12.5"/><text x="952.769" y="1197.688" fill="#000" font-size="12" textLength="207.152" font-family="Verdana">Lưu bộ flashcard và danh sách thẻ</text><line x1="768.229" y1="59.354" x2="768.229" y2="1414.424" style="stroke:#000;stroke-width:1;"/><line x1="1331.483" y1="59.354" x2="1331.483" y2="1414.424" style="stroke:#000;stroke-width:1;"/><line x1="154.164" y1="105.308" x2="154.164" y2="125.308" style="stroke:#000;stroke-width:1;"/><polygon points="150.164,115.308,154.164,125.308,158.164,115.308,154.164,119.308" fill="#000" style="stroke:#000;stroke-width:1;stroke-linejoin:miter;stroke-miterlimit:10;"/><line x1="154.164" y1="159.276" x2="154.164" y2="179.276" style="stroke:#000;stroke-width:1;"/><polygon points="150.164,169.276,154.164,179.276,158.164,169.276,154.164,173.276" fill="#000" style="stroke:#000;stroke-width:1;stroke-linejoin:miter;stroke-miterlimit:10;"/><line x1="154.164" y1="647.089" x2="154.164" y2="667.089" style="stroke:#000;stroke-width:1;"/><polygon points="150.164,657.089,154.164,667.089,158.164,657.089,154.164,661.089" fill="#000" style="stroke:#000;stroke-width:1;stroke-linejoin:miter;stroke-miterlimit:10;"/><line x1="154.164" y1="972.643" x2="154.164" y2="992.643" style="stroke:#000;stroke-width:1;"/><polygon points="150.164,982.643,154.164,992.643,158.164,982.643,154.164,986.643" fill="#000" style="stroke:#000;stroke-width:1;stroke-linejoin:miter;stroke-miterlimit:10;"/><line x1="154.164" y1="1372.424" x2="154.164" y2="1392.424" style="stroke:#000;stroke-width:1;"/><polygon points="150.164,1382.424,154.164,1392.424,158.164,1382.424,154.164,1386.424" fill="#000" style="stroke:#000;stroke-width:1;stroke-linejoin:miter;stroke-miterlimit:10;"/><line x1="415.82" y1="463.151" x2="415.82" y2="483.151" style="stroke:#000;stroke-width:1;"/><polygon points="411.82,473.151,415.82,483.151,419.82,473.151,415.82,477.151" fill="#000" style="stroke:#000;stroke-width:1;stroke-linejoin:miter;stroke-miterlimit:10;"/><line x1="654.271" y1="1264.487" x2="654.271" y2="1284.487" style="stroke:#000;stroke-width:1;"/><polygon points="650.271,1274.487,654.271,1284.487,658.271,1274.487,654.271,1278.487" fill="#000" style="stroke:#000;stroke-width:1;stroke-linejoin:miter;stroke-miterlimit:10;"/><line x1="946.502" y1="397.183" x2="1002.13" y2="397.183" style="stroke:#000;stroke-width:1;"/><line x1="1002.13" y1="397.183" x2="1002.13" y2="429.183" style="stroke:#000;stroke-width:1;"/><polygon points="998.13,419.183,1002.13,429.183,1006.13,419.183,1002.13,423.183" fill="#000" style="stroke:#000;stroke-width:1;stroke-linejoin:miter;stroke-miterlimit:10;"/><line x1="1002.13" y1="463.151" x2="1002.13" y2="527.151" style="stroke:#000;stroke-width:1;"/><line x1="1002.13" y1="527.151" x2="1044.345" y2="527.151" style="stroke:#000;stroke-width:1;"/><polygon points="1034.345,523.151,1044.345,527.151,1034.345,531.151,1038.345,527.151" fill="#000" style="stroke:#000;stroke-width:1;stroke-linejoin:miter;stroke-miterlimit:10;"/><line x1="877.3" y1="365.183" x2="877.3" y2="385.183" style="stroke:#000;stroke-width:1;"/><polygon points="873.3,375.183,877.3,385.183,881.3,375.183,877.3,379.183" fill="#000" style="stroke:#000;stroke-width:1;stroke-linejoin:miter;stroke-miterlimit:10;"/><line x1="988.779" y1="299.214" x2="877.3" y2="299.214" style="stroke:#000;stroke-width:1;"/><line x1="877.3" y1="299.214" x2="877.3" y2="331.214" style="stroke:#000;stroke-width:1;"/><polygon points="873.3,321.214,877.3,331.214,881.3,321.214,877.3,325.214" fill="#000" style="stroke:#000;stroke-width:1;stroke-linejoin:miter;stroke-miterlimit:10;"/><line x1="1123.912" y1="299.214" x2="1235.391" y2="299.214" style="stroke:#000;stroke-width:1;"/><line x1="1235.391" y1="299.214" x2="1235.391" y2="331.214" style="stroke:#000;stroke-width:1;"/><polygon points="1231.391,321.214,1235.391,331.214,1239.391,321.214,1235.391,325.214" fill="#000" style="stroke:#000;stroke-width:1;stroke-linejoin:miter;stroke-miterlimit:10;"/><line x1="1235.391" y1="365.183" x2="1235.391" y2="527.151" style="stroke:#000;stroke-width:1;"/><line x1="1235.391" y1="527.151" x2="1068.345" y2="527.151" style="stroke:#000;stroke-width:1;"/><polygon points="1078.345,523.151,1068.345,527.151,1078.345,531.151,1074.345,527.151" fill="#000" style="stroke:#000;stroke-width:1;stroke-linejoin:miter;stroke-miterlimit:10;"/><line x1="1056.345" y1="1134.549" x2="1056.345" y2="1144.549" style="stroke:#000;stroke-width:1;"/><line x1="1056.345" y1="1144.549" x2="1173.405" y2="1144.549" style="stroke:#000;stroke-width:1;"/><polygon points="1169.405,1001.225,1173.405,991.225,1177.405,1001.225,1173.405,997.225" fill="#000" style="stroke:#000;stroke-width:1;stroke-linejoin:miter;stroke-miterlimit:10;"/><line x1="1173.405" y1="840.995" x2="1173.405" y2="1144.549" style="stroke:#000;stroke-width:1;"/><line x1="1173.405" y1="840.995" x2="1109.41" y2="840.995" style="stroke:#000;stroke-width:1;"/><polygon points="1119.41,836.995,1109.41,840.995,1119.41,844.995,1115.41,840.995" fill="#000" style="stroke:#000;stroke-width:1;stroke-linejoin:miter;stroke-miterlimit:10;"/><line x1="1003.281" y1="840.995" x2="939.286" y2="840.995" style="stroke:#000;stroke-width:1;"/><polygon points="935.286,987.225,939.286,997.225,943.286,987.225,939.286,991.225" fill="#000" style="stroke:#000;stroke-width:1;stroke-linejoin:miter;stroke-miterlimit:10;"/><line x1="939.286" y1="840.995" x2="939.286" y2="1156.549" style="stroke:#000;stroke-width:1;"/><line x1="939.286" y1="1156.549" x2="1056.345" y2="1156.549" style="stroke:#000;stroke-width:1;"/><line x1="1056.345" y1="1156.549" x2="1056.345" y2="1176.549" style="stroke:#000;stroke-width:1;"/><polygon points="1052.345,1166.549,1056.345,1176.549,1060.345,1166.549,1056.345,1170.549" fill="#000" style="stroke:#000;stroke-width:1;stroke-linejoin:miter;stroke-miterlimit:10;"/><line x1="1056.345" y1="808.995" x2="1056.345" y2="828.995" style="stroke:#000;stroke-width:1;"/><polygon points="1052.345,818.995,1056.345,828.995,1060.345,818.995,1056.345,822.995" fill="#000" style="stroke:#000;stroke-width:1;stroke-linejoin:miter;stroke-miterlimit:10;"/><line x1="154.164" y1="213.245" x2="154.164" y2="218.245" style="stroke:#000;stroke-width:1;"/><line x1="154.164" y1="218.245" x2="654.271" y2="218.245" style="stroke:#000;stroke-width:1;"/><line x1="654.271" y1="218.245" x2="654.271" y2="233.245" style="stroke:#000;stroke-width:1;"/><polygon points="650.271,223.245,654.271,233.245,658.271,223.245,654.271,227.245" fill="#000" style="stroke:#000;stroke-width:1;stroke-linejoin:miter;stroke-miterlimit:10;"/><line x1="808.098" y1="397.183" x2="415.82" y2="397.183" style="stroke:#000;stroke-width:1;"/><line x1="415.82" y1="397.183" x2="415.82" y2="429.183" style="stroke:#000;stroke-width:1;"/><polygon points="411.82,419.183,415.82,429.183,419.82,419.183,415.82,423.183" fill="#000" style="stroke:#000;stroke-width:1;stroke-linejoin:miter;stroke-miterlimit:10;"/><line x1="654.271" y1="267.214" x2="654.271" y2="272.214" style="stroke:#000;stroke-width:1;"/><line x1="654.271" y1="272.214" x2="1056.345" y2="272.214" style="stroke:#000;stroke-width:1;"/><line x1="1056.345" y1="272.214" x2="1056.345" y2="287.214" style="stroke:#000;stroke-width:1;"/><polygon points="1052.345,277.214,1056.345,287.214,1060.345,277.214,1056.345,281.214" fill="#000" style="stroke:#000;stroke-width:1;stroke-linejoin:miter;stroke-miterlimit:10;"/><line x1="1056.345" y1="539.151" x2="1056.345" y2="544.151" style="stroke:#000;stroke-width:1;"/><line x1="1056.345" y1="544.151" x2="654.271" y2="544.151" style="stroke:#000;stroke-width:1;"/><line x1="654.271" y1="544.151" x2="654.271" y2="559.151" style="stroke:#000;stroke-width:1;"/><polygon points="650.271,549.151,654.271,559.151,658.271,549.151,654.271,553.151" fill="#000" style="stroke:#000;stroke-width:1;stroke-linejoin:miter;stroke-miterlimit:10;"/><line x1="654.271" y1="593.12" x2="654.271" y2="598.12" style="stroke:#000;stroke-width:1;"/><line x1="654.271" y1="598.12" x2="154.164" y2="598.12" style="stroke:#000;stroke-width:1;"/><line x1="154.164" y1="598.12" x2="154.164" y2="613.12" style="stroke:#000;stroke-width:1;"/><polygon points="150.164,603.12,154.164,613.12,158.164,603.12,154.164,607.12" fill="#000" style="stroke:#000;stroke-width:1;stroke-linejoin:miter;stroke-miterlimit:10;"/><line x1="154.164" y1="701.058" x2="154.164" y2="706.058" style="stroke:#000;stroke-width:1;"/><line x1="154.164" y1="706.058" x2="654.271" y2="706.058" style="stroke:#000;stroke-width:1;"/><line x1="654.271" y1="706.058" x2="654.271" y2="721.058" style="stroke:#000;stroke-width:1;"/><polygon points="650.271,711.058,654.271,721.058,658.271,711.058,654.271,715.058" fill="#000" style="stroke:#000;stroke-width:1;stroke-linejoin:miter;stroke-miterlimit:10;"/><line x1="654.271" y1="755.026" x2="654.271" y2="760.026" style="stroke:#000;stroke-width:1;"/><line x1="654.271" y1="760.026" x2="1056.345" y2="760.026" style="stroke:#000;stroke-width:1;"/><line x1="1056.345" y1="760.026" x2="1056.345" y2="775.026" style="stroke:#000;stroke-width:1;"/><polygon points="1052.345,765.026,1056.345,775.026,1060.345,765.026,1056.345,769.026" fill="#000" style="stroke:#000;stroke-width:1;stroke-linejoin:miter;stroke-miterlimit:10;"/><line x1="654.271" y1="918.674" x2="654.271" y2="923.674" style="stroke:#000;stroke-width:1;"/><line x1="654.271" y1="923.674" x2="154.164" y2="923.674" style="stroke:#000;stroke-width:1;"/><line x1="154.164" y1="923.674" x2="154.164" y2="938.674" style="stroke:#000;stroke-width:1;"/><polygon points="150.164,928.674,154.164,938.674,158.164,928.674,154.164,932.674" fill="#000" style="stroke:#000;stroke-width:1;stroke-linejoin:miter;stroke-miterlimit:10;"/><line x1="154.164" y1="1026.612" x2="154.164" y2="1031.612" style="stroke:#000;stroke-width:1;"/><line x1="154.164" y1="1031.612" x2="654.271" y2="1031.612" style="stroke:#000;stroke-width:1;"/><line x1="654.271" y1="1031.612" x2="654.271" y2="1046.612" style="stroke:#000;stroke-width:1;"/><polygon points="650.271,1036.612,654.271,1046.612,658.271,1036.612,654.271,1040.612" fill="#000" style="stroke:#000;stroke-width:1;stroke-linejoin:miter;stroke-miterlimit:10;"/><line x1="654.271" y1="1080.581" x2="654.271" y2="1085.581" style="stroke:#000;stroke-width:1;"/><line x1="654.271" y1="1085.581" x2="1056.345" y2="1085.581" style="stroke:#000;stroke-width:1;"/><line x1="1056.345" y1="1085.581" x2="1056.345" y2="1100.581" style="stroke:#000;stroke-width:1;"/><polygon points="1052.345,1090.581,1056.345,1100.581,1060.345,1090.581,1056.345,1094.581" fill="#000" style="stroke:#000;stroke-width:1;stroke-linejoin:miter;stroke-miterlimit:10;"/><line x1="1056.345" y1="852.995" x2="1056.345" y2="869.706" style="stroke:#000;stroke-width:1;"/><line x1="1056.345" y1="869.706" x2="654.271" y2="869.706" style="stroke:#000;stroke-width:1;"/><line x1="654.271" y1="869.706" x2="654.271" y2="884.706" style="stroke:#000;stroke-width:1;"/><polygon points="650.271,874.706,654.271,884.706,658.271,874.706,654.271,878.706" fill="#000" style="stroke:#000;stroke-width:1;stroke-linejoin:miter;stroke-miterlimit:10;"/><line x1="1056.345" y1="1210.518" x2="1056.345" y2="1215.518" style="stroke:#000;stroke-width:1;"/><line x1="1056.345" y1="1215.518" x2="654.271" y2="1215.518" style="stroke:#000;stroke-width:1;"/><line x1="654.271" y1="1215.518" x2="654.271" y2="1230.518" style="stroke:#000;stroke-width:1;"/><polygon points="650.271,1220.518,654.271,1230.518,658.271,1220.518,654.271,1224.518" fill="#000" style="stroke:#000;stroke-width:1;stroke-linejoin:miter;stroke-miterlimit:10;"/><line x1="654.271" y1="1318.456" x2="654.271" y2="1323.456" style="stroke:#000;stroke-width:1;"/><line x1="654.271" y1="1323.456" x2="154.164" y2="1323.456" style="stroke:#000;stroke-width:1;"/><line x1="154.164" y1="1323.456" x2="154.164" y2="1338.456" style="stroke:#000;stroke-width:1;"/><polygon points="150.164,1328.456,154.164,1338.456,158.164,1328.456,154.164,1332.456" fill="#000" style="stroke:#000;stroke-width:1;stroke-linejoin:miter;stroke-miterlimit:10;"/><text x="101.313" y="76.063" fill="#000" font-size="18" textLength="103.702" font-family="Verdana">Người dùng</text><text x="465.495" y="76.063" fill="#000" font-size="18" textLength="128.566" font-family="Verdana">Giao diện web</text><text x="1008.534" y="76.063" fill="#000" font-size="18" textLength="82.644" font-family="Verdana">Hệ thống</text><?plantuml-src VLJ1Yjim4BthAwQttL-m3priOHVIBfJsqAjZEv5OHyx6SfT0BgM7KaeFU-YXb98DEIoKBXj8eTIYzA2I_z2VT2GvMTbnUh8OpRoPUU_9ZmHDHocCiuXn8fZ8KdXUJa5Cr7TEGUXgaSDhTGEnhkx6m2b-1FIr_0o3B2fe74qIGcRdmyrAowyC4lMB3sUa4D54aE2PbdD88WGgr2AchRgG12TKou-yRcDlHrf-OK1pNVsCuRBKrP93fdwxIygqVCSXLkiGcvwoA8V4XQxI_em4frhUCPYgRwMPzxOqQFFjBZ7sUcz6mQJ8r9zX9GYCNfkHsG2EJlmKr_BljLgQXe-FCJNbcAFMnmGWw67ZjoC4hnCDIPVbLCittDJF0R7kon1JBR9QxsuRW-nmUrJzu4C33R2_cea6BsqAz1MITU7EiOSh9YYSrIcq-ON8ntX8ioBTZOtOpRKTCDBCC6OX1UCF6tdYOKab3NBA4pOW3lPXwg27a7DMQvdWyf2P1L0AwciR4bVVfT-PuPJRuJuSbAtjjU2SMczsZS_nW8cbPMeHRtVO-YxRh4gCHLEKMSjFx7-kyZV2xEeFDmhlcDmtbE-GVMCuTbkOjpQSX-IACdo8Hq-yUwnQZY73Crg65JxrNNPfSkdpW6rucrN4QDEA42_iC_1uZUbc5NcJcC86bncApy938paYROw_kirlkz9dprLiEMmHP_rKysLDJeAdPfJcl-Q0cRlazbzPRH1rOunemc7BfAqkxc_X_Iex3Vig7S45EaYu7rn8p4lz1m00?></g></svg>