<svg xmlns="http://www.w3.org/2000/svg" xmlns:xlink="http://www.w3.org/1999/xlink" version="1.1" data-diagram-type="ACTIVITY" style="width:1157px;height:1190px;background:#FFFFFF;" width="1157px" height="1190px" viewBox="0 0 1157 1190" zoomAndPan="magnify" preserveAspectRatio="none" contentStyleType="text/css"><?plantuml 1.2026.7beta8?><defs/><g font-family="sans-serif" lengthAdjust="spacing"><g class="title" data-source-line="2"><text x="364.855" y="35.421" fill="#000" font-size="22" textLength="425.466" font-weight="700" font-family="Verdana">Quy trình thực hiện một phiên học</text></g><rect x="15" y="59.354" width="1120.177" height="20.953" fill="#FFF" style="stroke:#FFF;stroke-width:1;"/><ellipse cx="242.09" cy="95.308" rx="10" ry="10" fill="#FFF" style="stroke:#000;stroke-width:1;"/><rect x="163.919" y="125.308" width="156.342" height="33.969" fill="#FFF" style="stroke:#000;stroke-width:1;" rx="12.5" ry="12.5"/><text x="173.919" y="146.446" fill="#000" font-size="12" textLength="136.342" font-family="Verdana">Chọn một bộ flashcard</text><rect x="152.792" y="233.245" width="178.596" height="33.969" fill="#FFF" style="stroke:#000;stroke-width:1;" rx="12.5" ry="12.5"/><text x="162.792" y="254.384" fill="#000" font-size="12" textLength="158.596" font-family="Verdana">Chọn bộ lọc và chế độ học</text><rect x="177.39" y="287.214" width="129.4" height="33.969" fill="#FFF" style="stroke:#000;stroke-width:1;" rx="12.5" ry="12.5"/><text x="187.39" y="308.353" fill="#000" font-size="12" textLength="109.4" font-family="Verdana">Bắt đầu phiên học</text><rect x="21" y="547.089" width="195.4" height="33.969" fill="#FFF" style="stroke:#000;stroke-width:1;" rx="12.5" ry="12.5"/><text x="31" y="568.228" fill="#000" font-size="12" textLength="175.4" font-family="Verdana">Thay đổi bộ lọc hoặc quay lại</text><ellipse cx="118.7" cy="612.058" rx="11" ry="11" fill="none" style="stroke:#000;stroke-width:1;"/><ellipse cx="118.7" cy="612.058" rx="6" ry="6" fill="#FFF" style="stroke:#000;stroke-width:1;"/><rect x="145.817" y="752.737" width="192.547" height="33.969" fill="#FFF" style="stroke:#000;stroke-width:1;" rx="12.5" ry="12.5"/><text x="155.817" y="773.875" fill="#000" font-size="12" textLength="172.547" font-family="Verdana">Thực hiện hoạt động học tập</text><rect x="105.879" y="1098.549" width="272.422" height="33.969" fill="#FFF" style="stroke:#000;stroke-width:1;" rx="12.5" ry="12.5"/><text x="115.879" y="1119.688" fill="#000" font-size="12" textLength="252.422" font-family="Verdana">Xem kết quả và chọn hướng học tiếp theo</text><ellipse cx="242.09" cy="1163.518" rx="11" ry="11" fill="none" style="stroke:#000;stroke-width:1;"/><ellipse cx="242.09" cy="1163.518" rx="6" ry="6" fill="#FFF" style="stroke:#000;stroke-width:1;"/><line x1="15" y1="59.354" x2="15" y2="1174.518" style="stroke:#000;stroke-width:1;"/><rect x="513.203" y="179.276" width="215.82" height="33.969" fill="#FFF" style="stroke:#000;stroke-width:1;" rx="12.5" ry="12.5"/><text x="523.203" y="200.415" fill="#000" font-size="12" textLength="195.82" font-family="Verdana">Hiển thị Study Hub và các bộ lọc</text><rect x="550.416" y="341.183" width="141.395" height="33.969" fill="#FFF" style="stroke:#000;stroke-width:1;" rx="12.5" ry="12.5"/><text x="560.416" y="362.321" fill="#000" font-size="12" textLength="121.395" font-family="Verdana">Gửi yêu cầu bắt đầu</text><rect x="388.301" y="493.12" width="218.844" height="33.969" fill="#FFF" style="stroke:#000;stroke-width:1;" rx="12.5" ry="12.5"/><text x="398.301" y="514.259" fill="#000" font-size="12" textLength="198.844" font-family="Verdana">Thông báo không có thẻ phù hợp</text><rect x="511.393" y="698.768" width="219.441" height="33.969" fill="#FFF" style="stroke:#000;stroke-width:1;" rx="12.5" ry="12.5"/><text x="521.393" y="719.907" fill="#000" font-size="12" textLength="199.441" font-family="Verdana">Hiển thị thẻ hoặc câu hỏi hiện tại</text><rect x="511.035" y="806.706" width="220.156" height="33.969" fill="#FFF" style="stroke:#000;stroke-width:1;" rx="12.5" ry="12.5"/><text x="521.035" y="827.844" fill="#000" font-size="12" textLength="200.156" font-family="Verdana">Gửi kết quả của nội dung hiện tại</text><rect x="542.729" y="1044.581" width="156.77" height="33.969" fill="#FFF" style="stroke:#000;stroke-width:1;" rx="12.5" ry="12.5"/><text x="552.729" y="1065.719" fill="#000" font-size="12" textLength="136.77" font-family="Verdana">Hiển thị trang tổng kết</text><line x1="382.301" y1="59.354" x2="382.301" y2="1174.518" style="stroke:#000;stroke-width:1;"/><rect x="741.191" y="395.151" width="294.752" height="33.969" fill="#FFF" style="stroke:#000;stroke-width:1;" rx="12.5" ry="12.5"/><text x="751.191" y="416.29" fill="#000" font-size="12" textLength="274.752" font-family="Verdana">Kiểm tra quyền truy cập và lấy danh sách thẻ</text><polygon points="828.312,449.12,948.823,449.12,960.823,461.12,948.823,473.12,828.312,473.12,816.312,461.12,828.312,449.12" fill="#FFF" style="stroke:#000;stroke-width:1;stroke-linejoin:miter;stroke-miterlimit:10;"/><text x="828.312" y="464.928" fill="#000" font-size="11" textLength="120.511" font-family="Verdana">Có nội dung phù hợp?</text><text x="781.443" y="458.526" fill="#000" font-size="11" textLength="34.869" font-family="Verdana">Không</text><text x="960.823" y="458.526" fill="#000" font-size="11" textLength="14.411" font-family="Verdana">Có</text><rect x="894.599" y="493.12" width="234.717" height="33.969" fill="#FFF" style="stroke:#000;stroke-width:1;" rx="12.5" ry="12.5"/><text x="904.599" y="514.259" fill="#000" font-size="12" textLength="214.717" font-family="Verdana">Tạo phiên học và chuẩn bị nội dung</text><rect x="808.091" y="860.674" width="160.953" height="33.969" fill="#FFF" style="stroke:#000;stroke-width:1;" rx="12.5" ry="12.5"/><text x="818.091" y="881.813" fill="#000" font-size="12" textLength="140.953" font-family="Verdana">Kiểm tra và lưu kết quả</text><rect x="797.491" y="914.643" width="182.152" height="33.969" fill="#FFF" style="stroke:#000;stroke-width:1;" rx="12.5" ry="12.5"/><text x="807.491" y="935.782" fill="#000" font-size="12" textLength="162.152" font-family="Verdana">Cập nhật tiến trình của thẻ</text><polygon points="815.496,643.058,961.638,643.058,973.638,655.058,961.638,667.058,815.496,667.058,803.496,655.058,815.496,643.058" fill="#FFF" style="stroke:#000;stroke-width:1;stroke-linejoin:miter;stroke-miterlimit:10;"/><text x="892.567" y="677.268" fill="#000" font-size="11" textLength="14.411" font-family="Verdana">Có</text><text x="815.496" y="658.866" fill="#000" font-size="11" textLength="146.142" font-family="Verdana">Còn nội dung trong phiên?</text><text x="768.627" y="652.463" fill="#000" font-size="11" textLength="34.869" font-family="Verdana">Không</text><rect x="762.394" y="990.612" width="252.348" height="33.969" fill="#FFF" style="stroke:#000;stroke-width:1;" rx="12.5" ry="12.5"/><text x="772.394" y="1011.75" fill="#000" font-size="12" textLength="232.348" font-family="Verdana">Hoàn thành phiên và tổng hợp kết quả</text><line x1="735.191" y1="59.354" x2="735.191" y2="1174.518" style="stroke:#000;stroke-width:1;"/><line x1="1133.316" y1="59.354" x2="1133.316" y2="1174.518" style="stroke:#000;stroke-width:1;"/><line x1="242.09" y1="105.308" x2="242.09" y2="125.308" style="stroke:#000;stroke-width:1;"/><polygon points="238.09,115.308,242.09,125.308,246.09,115.308,242.09,119.308" fill="#000" style="stroke:#000;stroke-width:1;stroke-linejoin:miter;stroke-miterlimit:10;"/><line x1="242.09" y1="267.214" x2="242.09" y2="287.214" style="stroke:#000;stroke-width:1;"/><polygon points="238.09,277.214,242.09,287.214,246.09,277.214,242.09,281.214" fill="#000" style="stroke:#000;stroke-width:1;stroke-linejoin:miter;stroke-miterlimit:10;"/><line x1="118.7" y1="581.058" x2="118.7" y2="601.058" style="stroke:#000;stroke-width:1;"/><polygon points="114.7,591.058,118.7,601.058,122.7,591.058,118.7,595.058" fill="#000" style="stroke:#000;stroke-width:1;stroke-linejoin:miter;stroke-miterlimit:10;"/><line x1="242.09" y1="1132.518" x2="242.09" y2="1152.518" style="stroke:#000;stroke-width:1;"/><polygon points="238.09,1142.518,242.09,1152.518,246.09,1142.518,242.09,1146.518" fill="#000" style="stroke:#000;stroke-width:1;stroke-linejoin:miter;stroke-miterlimit:10;"/><line x1="960.823" y1="461.12" x2="1011.958" y2="461.12" style="stroke:#000;stroke-width:1;"/><line x1="1011.958" y1="461.12" x2="1011.958" y2="493.12" style="stroke:#000;stroke-width:1;"/><polygon points="1007.958,483.12,1011.958,493.12,1015.958,483.12,1011.958,487.12" fill="#000" style="stroke:#000;stroke-width:1;stroke-linejoin:miter;stroke-miterlimit:10;"/><line x1="1011.958" y1="527.089" x2="1011.958" y2="628.058" style="stroke:#000;stroke-width:1;"/><line x1="1011.958" y1="628.058" x2="888.567" y2="628.058" style="stroke:#000;stroke-width:1;"/><line x1="888.567" y1="628.058" x2="888.567" y2="643.058" style="stroke:#000;stroke-width:1;"/><polygon points="884.567,633.058,888.567,643.058,892.567,633.058,888.567,637.058" fill="#000" style="stroke:#000;stroke-width:1;stroke-linejoin:miter;stroke-miterlimit:10;"/><line x1="888.567" y1="429.12" x2="888.567" y2="449.12" style="stroke:#000;stroke-width:1;"/><polygon points="884.567,439.12,888.567,449.12,892.567,439.12,888.567,443.12" fill="#000" style="stroke:#000;stroke-width:1;stroke-linejoin:miter;stroke-miterlimit:10;"/><line x1="888.567" y1="894.643" x2="888.567" y2="914.643" style="stroke:#000;stroke-width:1;"/><polygon points="884.567,904.643,888.567,914.643,892.567,904.643,888.567,908.643" fill="#000" style="stroke:#000;stroke-width:1;stroke-linejoin:miter;stroke-miterlimit:10;"/><line x1="888.567" y1="948.612" x2="888.567" y2="958.612" style="stroke:#000;stroke-width:1;"/><line x1="888.567" y1="958.612" x2="1010.646" y2="958.612" style="stroke:#000;stroke-width:1;"/><polygon points="1006.646,815.288,1010.646,805.288,1014.646,815.288,1010.646,811.288" fill="#000" style="stroke:#000;stroke-width:1;stroke-linejoin:miter;stroke-miterlimit:10;"/><line x1="1010.646" y1="655.058" x2="1010.646" y2="958.612" style="stroke:#000;stroke-width:1;"/><line x1="1010.646" y1="655.058" x2="973.638" y2="655.058" style="stroke:#000;stroke-width:1;"/><polygon points="983.638,651.058,973.638,655.058,983.638,659.058,979.638,655.058" fill="#000" style="stroke:#000;stroke-width:1;stroke-linejoin:miter;stroke-miterlimit:10;"/><line x1="803.496" y1="655.058" x2="766.489" y2="655.058" style="stroke:#000;stroke-width:1;"/><polygon points="762.489,801.288,766.489,811.288,770.489,801.288,766.489,805.288" fill="#000" style="stroke:#000;stroke-width:1;stroke-linejoin:miter;stroke-miterlimit:10;"/><line x1="766.489" y1="655.058" x2="766.489" y2="970.612" style="stroke:#000;stroke-width:1;"/><line x1="766.489" y1="970.612" x2="888.567" y2="970.612" style="stroke:#000;stroke-width:1;"/><line x1="888.567" y1="970.612" x2="888.567" y2="990.612" style="stroke:#000;stroke-width:1;"/><polygon points="884.567,980.612,888.567,990.612,892.567,980.612,888.567,984.612" fill="#000" style="stroke:#000;stroke-width:1;stroke-linejoin:miter;stroke-miterlimit:10;"/><line x1="242.09" y1="159.276" x2="242.09" y2="164.276" style="stroke:#000;stroke-width:1;"/><line x1="242.09" y1="164.276" x2="621.113" y2="164.276" style="stroke:#000;stroke-width:1;"/><line x1="621.113" y1="164.276" x2="621.113" y2="179.276" style="stroke:#000;stroke-width:1;"/><polygon points="617.113,169.276,621.113,179.276,625.113,169.276,621.113,173.276" fill="#000" style="stroke:#000;stroke-width:1;stroke-linejoin:miter;stroke-miterlimit:10;"/><line x1="621.113" y1="213.245" x2="621.113" y2="218.245" style="stroke:#000;stroke-width:1;"/><line x1="621.113" y1="218.245" x2="242.09" y2="218.245" style="stroke:#000;stroke-width:1;"/><line x1="242.09" y1="218.245" x2="242.09" y2="233.245" style="stroke:#000;stroke-width:1;"/><polygon points="238.09,223.245,242.09,233.245,246.09,223.245,242.09,227.245" fill="#000" style="stroke:#000;stroke-width:1;stroke-linejoin:miter;stroke-miterlimit:10;"/><line x1="242.09" y1="321.183" x2="242.09" y2="326.183" style="stroke:#000;stroke-width:1;"/><line x1="242.09" y1="326.183" x2="621.113" y2="326.183" style="stroke:#000;stroke-width:1;"/><line x1="621.113" y1="326.183" x2="621.113" y2="341.183" style="stroke:#000;stroke-width:1;"/><polygon points="617.113,331.183,621.113,341.183,625.113,331.183,621.113,335.183" fill="#000" style="stroke:#000;stroke-width:1;stroke-linejoin:miter;stroke-miterlimit:10;"/><line x1="621.113" y1="375.151" x2="621.113" y2="380.151" style="stroke:#000;stroke-width:1;"/><line x1="621.113" y1="380.151" x2="888.567" y2="380.151" style="stroke:#000;stroke-width:1;"/><line x1="888.567" y1="380.151" x2="888.567" y2="395.151" style="stroke:#000;stroke-width:1;"/><polygon points="884.567,385.151,888.567,395.151,892.567,385.151,888.567,389.151" fill="#000" style="stroke:#000;stroke-width:1;stroke-linejoin:miter;stroke-miterlimit:10;"/><line x1="497.723" y1="527.089" x2="497.723" y2="532.089" style="stroke:#000;stroke-width:1;"/><line x1="497.723" y1="532.089" x2="118.7" y2="532.089" style="stroke:#000;stroke-width:1;"/><line x1="118.7" y1="532.089" x2="118.7" y2="547.089" style="stroke:#000;stroke-width:1;"/><polygon points="114.7,537.089,118.7,547.089,122.7,537.089,118.7,541.089" fill="#000" style="stroke:#000;stroke-width:1;stroke-linejoin:miter;stroke-miterlimit:10;"/><line x1="816.312" y1="461.12" x2="497.723" y2="461.12" style="stroke:#000;stroke-width:1;"/><line x1="497.723" y1="461.12" x2="497.723" y2="493.12" style="stroke:#000;stroke-width:1;"/><polygon points="493.723,483.12,497.723,493.12,501.723,483.12,497.723,487.12" fill="#000" style="stroke:#000;stroke-width:1;stroke-linejoin:miter;stroke-miterlimit:10;"/><line x1="621.113" y1="732.737" x2="621.113" y2="737.737" style="stroke:#000;stroke-width:1;"/><line x1="621.113" y1="737.737" x2="242.09" y2="737.737" style="stroke:#000;stroke-width:1;"/><line x1="242.09" y1="737.737" x2="242.09" y2="752.737" style="stroke:#000;stroke-width:1;"/><polygon points="238.09,742.737,242.09,752.737,246.09,742.737,242.09,746.737" fill="#000" style="stroke:#000;stroke-width:1;stroke-linejoin:miter;stroke-miterlimit:10;"/><line x1="242.09" y1="786.706" x2="242.09" y2="791.706" style="stroke:#000;stroke-width:1;"/><line x1="242.09" y1="791.706" x2="621.113" y2="791.706" style="stroke:#000;stroke-width:1;"/><line x1="621.113" y1="791.706" x2="621.113" y2="806.706" style="stroke:#000;stroke-width:1;"/><polygon points="617.113,796.706,621.113,806.706,625.113,796.706,621.113,800.706" fill="#000" style="stroke:#000;stroke-width:1;stroke-linejoin:miter;stroke-miterlimit:10;"/><line x1="621.113" y1="840.674" x2="621.113" y2="845.674" style="stroke:#000;stroke-width:1;"/><line x1="621.113" y1="845.674" x2="888.567" y2="845.674" style="stroke:#000;stroke-width:1;"/><line x1="888.567" y1="845.674" x2="888.567" y2="860.674" style="stroke:#000;stroke-width:1;"/><polygon points="884.567,850.674,888.567,860.674,892.567,850.674,888.567,854.674" fill="#000" style="stroke:#000;stroke-width:1;stroke-linejoin:miter;stroke-miterlimit:10;"/><line x1="888.567" y1="667.058" x2="888.567" y2="683.768" style="stroke:#000;stroke-width:1;"/><line x1="888.567" y1="683.768" x2="621.113" y2="683.768" style="stroke:#000;stroke-width:1;"/><line x1="621.113" y1="683.768" x2="621.113" y2="698.768" style="stroke:#000;stroke-width:1;"/><polygon points="617.113,688.768,621.113,698.768,625.113,688.768,621.113,692.768" fill="#000" style="stroke:#000;stroke-width:1;stroke-linejoin:miter;stroke-miterlimit:10;"/><line x1="888.567" y1="1024.581" x2="888.567" y2="1029.581" style="stroke:#000;stroke-width:1;"/><line x1="888.567" y1="1029.581" x2="621.113" y2="1029.581" style="stroke:#000;stroke-width:1;"/><line x1="621.113" y1="1029.581" x2="621.113" y2="1044.581" style="stroke:#000;stroke-width:1;"/><polygon points="617.113,1034.581,621.113,1044.581,625.113,1034.581,621.113,1038.581" fill="#000" style="stroke:#000;stroke-width:1;stroke-linejoin:miter;stroke-miterlimit:10;"/><line x1="621.113" y1="1078.549" x2="621.113" y2="1083.549" style="stroke:#000;stroke-width:1;"/><line x1="621.113" y1="1083.549" x2="242.09" y2="1083.549" style="stroke:#000;stroke-width:1;"/><line x1="242.09" y1="1083.549" x2="242.09" y2="1098.549" style="stroke:#000;stroke-width:1;"/><polygon points="238.09,1088.549,242.09,1098.549,246.09,1088.549,242.09,1092.549" fill="#000" style="stroke:#000;stroke-width:1;stroke-linejoin:miter;stroke-miterlimit:10;"/><text x="146.8" y="76.063" fill="#000" font-size="18" textLength="103.702" font-family="Verdana">Người dùng</text><text x="479.298" y="76.063" fill="#000" font-size="18" textLength="158.897" font-family="Verdana">Giao diện học tập</text><text x="892.932" y="76.063" fill="#000" font-size="18" textLength="82.644" font-family="Verdana">Hệ thống</text><?plantuml-src ZLDDYzH04BtthoXlktzXSX2Smmui2A87hvaaCzrifXEJZXAOYtZmi8ZimOE8iECWYul3hXyWcnmyjEp_w7zYLNV2TDnnzH92TzMhzrw_kgDuiaWWJqCXcH8gJU11LOCgz6V9GN7JVec02zE-bB0mxLi5EHVwN0BUl8eOMzwVNr-Qzhs0M5_9-PALAYmK6utflc-PuXTcQLZoA2pY0BiEH9X1x60j4YZJRF8b6qtmy8Mqau_XeQhY6YRL59xgKuZqAd9OARK4EwRtSxTLhfERvYVyEg5Jxdf7zqnpeUYiEQi6ecxdTs3QZO1QdrSGsTQfXqEj4sooz4yieKFIiq13GtXIrQPzZjeAT3WYF4ikDSt76k8G_IvHeNMzQGCcPh0trjz08ciKMCavqjHNn6UTtzt7iaJ2tY7Nt-Lydm7ydJJ0w94jWwbUPN3a_YF4jgCys81m_ZJLjeUrzU-DyBtbcMb-H2WCRr76Ib1_gRAS9McPMFgMsT0JmiFYRE1wzqwLQJxPvplsT0SiaR6OCVQCYzJ2VfM-BQh8h3c4XiQ8SZlvDay6KNDET88Y_Q6YyjUYpxxgrUrsnryJmbWfbpQavKqD_iN8XUi8mwhGLDEiCIRjMUXhlS7dXhTUucoyhYyh7vAQHcERFecQDmgKm5lPxxoRs6KGVUyyxtE66vhfKt8Dlxn_GXgaC1rExpeV3lplVKVEz9mEo4BiNFB7oM9WKhVYjFYSIjzjRITfEQrA5Z0Avcy0?></g></svg>