<svg xmlns="http://www.w3.org/2000/svg" xmlns:xlink="http://www.w3.org/1999/xlink" version="1.1" data-diagram-type="ACTIVITY" style="width:1692px;height:1732px;background:#FFFFFF;" width="1692px" height="1732px" viewBox="0 0 1692 1732" zoomAndPan="magnify" preserveAspectRatio="none" contentStyleType="text/css"><?plantuml 1.2026.7beta8?><defs/><g font-family="sans-serif" lengthAdjust="spacing"><g class="title" data-source-line="2"><text x="624.994" y="35.421" fill="#000" font-size="22" textLength="440.118" font-weight="700" font-family="Verdana">Quy trình thực hiện English Mission</text></g><rect x="15" y="59.354" width="1655.106" height="20.953" fill="#FFF" style="stroke:#FFF;stroke-width:1;"/><ellipse cx="273.152" cy="95.308" rx="10" ry="10" fill="#FFF" style="stroke:#000;stroke-width:1;"/><rect x="165.266" y="125.308" width="215.773" height="33.969" fill="#FFF" style="stroke:#000;stroke-width:1;" rx="12.5" ry="12.5"/><text x="175.266" y="146.446" fill="#000" font-size="12" textLength="195.773" font-family="Verdana">Mở English Mission từ Study Hub</text><rect x="197.311" y="233.245" width="151.684" height="33.969" fill="#FFF" style="stroke:#000;stroke-width:1;" rx="12.5" ry="12.5"/><text x="207.311" y="254.384" fill="#000" font-size="12" textLength="131.684" font-family="Verdana">Chọn chủ đề giao tiếp</text><rect x="66.374" y="493.12" width="135.863" height="33.969" fill="#FFF" style="stroke:#000;stroke-width:1;" rx="12.5" ry="12.5"/><text x="76.374" y="514.259" fill="#000" font-size="12" textLength="115.863" font-family="Verdana">Quay lại Study Hub</text><ellipse cx="134.305" cy="558.089" rx="11" ry="11" fill="none" style="stroke:#000;stroke-width:1;"/><ellipse cx="134.305" cy="558.089" rx="6" ry="6" fill="#FFF" style="stroke:#000;stroke-width:1;"/><rect x="21" y="794.995" width="236.428" height="33.969" fill="#FFF" style="stroke:#000;stroke-width:1;" rx="12.5" ry="12.5"/><text x="31" y="816.134" fill="#000" font-size="12" textLength="216.428" font-family="Verdana">Thử lại sau hoặc quay về Study Hub</text><ellipse cx="139.214" cy="859.964" rx="11" ry="11" fill="none" style="stroke:#000;stroke-width:1;"/><ellipse cx="139.214" cy="859.964" rx="6" ry="6" fill="#FFF" style="stroke:#000;stroke-width:1;"/><rect x="167.524" y="1000.643" width="211.256" height="33.969" fill="#FFF" style="stroke:#000;stroke-width:1;" rx="12.5" ry="12.5"/><text x="177.524" y="1021.782" fill="#000" font-size="12" textLength="191.256" font-family="Verdana">Nhập câu trả lời bằng tiếng Anh</text><rect x="153.28" y="1640.331" width="239.744" height="33.969" fill="#FFF" style="stroke:#000;stroke-width:1;" rx="12.5" ry="12.5"/><text x="163.28" y="1661.469" fill="#000" font-size="12" textLength="219.744" font-family="Verdana">Xem từ đã sử dụng và câu cần ôn lại</text><ellipse cx="273.152" cy="1705.299" rx="11" ry="11" fill="none" style="stroke:#000;stroke-width:1;"/><ellipse cx="273.152" cy="1705.299" rx="6" ry="6" fill="#FFF" style="stroke:#000;stroke-width:1;"/><line x1="15" y1="59.354" x2="15" y2="1716.299" style="stroke:#000;stroke-width:1;"/><rect x="570.58" y="179.276" width="176.861" height="33.969" fill="#FFF" style="stroke:#000;stroke-width:1;" rx="12.5" ry="12.5"/><text x="580.58" y="200.415" fill="#000" font-size="12" textLength="156.861" font-family="Verdana">Hiển thị danh sách chủ đề</text><rect x="557.147" y="287.214" width="203.727" height="33.969" fill="#FFF" style="stroke:#000;stroke-width:1;" rx="12.5" ry="12.5"/><text x="567.147" y="308.353" fill="#000" font-size="12" textLength="183.727" font-family="Verdana">Gửi yêu cầu khởi tạo nhiệm vụ</text><rect x="403.024" y="439.151" width="234.277" height="33.969" fill="#FFF" style="stroke:#000;stroke-width:1;" rx="12.5" ry="12.5"/><text x="413.024" y="460.29" fill="#000" font-size="12" textLength="214.277" font-family="Verdana">Thông báo bộ thẻ chưa đủ nội dung</text><rect x="413.432" y="741.026" width="223.279" height="33.969" fill="#FFF" style="stroke:#000;stroke-width:1;" rx="12.5" ry="12.5"/><text x="423.432" y="762.165" fill="#000" font-size="12" textLength="203.279" font-family="Verdana">Thông báo chưa thể tạo nhiệm vụ</text><rect x="539.627" y="946.674" width="238.766" height="33.969" fill="#FFF" style="stroke:#000;stroke-width:1;" rx="12.5" ry="12.5"/><text x="549.627" y="967.813" fill="#000" font-size="12" textLength="218.766" font-family="Verdana">Hiển thị bối cảnh và lịch sử hội thoại</text><rect x="606.89" y="1054.612" width="104.24" height="33.969" fill="#FFF" style="stroke:#000;stroke-width:1;" rx="12.5" ry="12.5"/><text x="616.89" y="1075.75" fill="#000" font-size="12" textLength="84.24" font-family="Verdana">Gửi câu trả lời</text><rect x="413.905" y="1206.549" width="235.607" height="33.969" fill="#FFF" style="stroke:#000;stroke-width:1;" rx="12.5" ry="12.5"/><text x="423.905" y="1227.688" fill="#000" font-size="12" textLength="215.607" font-family="Verdana">Thông báo để người dùng chỉnh sửa</text><rect x="697.075" y="1422.424" width="178.473" height="33.969" fill="#FFF" style="stroke:#000;stroke-width:1;" rx="12.5" ry="12.5"/><text x="707.075" y="1443.563" fill="#000" font-size="12" textLength="158.473" font-family="Verdana">Hiển thị phản hồi và góp ý</text><rect x="571.01" y="1586.362" width="176" height="33.969" fill="#FFF" style="stroke:#000;stroke-width:1;" rx="12.5" ry="12.5"/><text x="581.01" y="1607.5" fill="#000" font-size="12" textLength="156" font-family="Verdana">Hiển thị kết quả nhiệm vụ</text><line x1="397.024" y1="59.354" x2="397.024" y2="1716.299" style="stroke:#000;stroke-width:1;"/><rect x="912.548" y="341.183" width="289.66" height="33.969" fill="#FFF" style="stroke:#000;stroke-width:1;" rx="12.5" ry="12.5"/><text x="922.548" y="362.321" fill="#000" font-size="12" textLength="269.66" font-family="Verdana">Kiểm tra quyền truy cập và chọn từ mục tiêu</text><polygon points="1005.219,395.151,1109.537,395.151,1121.537,407.151,1109.537,419.151,1005.219,419.151,993.219,407.151,1005.219,395.151" fill="#FFF" style="stroke:#000;stroke-width:1;stroke-linejoin:miter;stroke-miterlimit:10;"/><text x="1005.219" y="410.959" fill="#000" font-size="11" textLength="104.317" font-family="Verdana">Có đủ từ mục tiêu?</text><text x="958.35" y="404.557" fill="#000" font-size="11" textLength="34.869" font-family="Verdana">Không</text><text x="1121.537" y="404.557" fill="#000" font-size="11" textLength="14.411" font-family="Verdana">Có</text><rect x="1055.669" y="439.151" width="281.111" height="33.969" fill="#FFF" style="stroke:#000;stroke-width:1;" rx="12.5" ry="12.5"/><text x="1065.669" y="460.29" fill="#000" font-size="12" textLength="261.111" font-family="Verdana">Chuẩn bị bối cảnh và yêu cầu tạo nhiệm vụ</text><rect x="967.661" y="643.058" width="179.434" height="33.969" fill="#FFF" style="stroke:#000;stroke-width:1;" rx="12.5" ry="12.5"/><text x="977.661" y="664.196" fill="#000" font-size="12" textLength="159.434" font-family="Verdana">Kiểm tra phản hồi khởi tạo</text><polygon points="1011.922,697.026,1102.833,697.026,1114.833,709.026,1102.833,721.026,1011.922,721.026,999.922,709.026,1011.922,697.026" fill="#FFF" style="stroke:#000;stroke-width:1;stroke-linejoin:miter;stroke-miterlimit:10;"/><text x="1011.922" y="712.834" fill="#000" font-size="11" textLength="90.911" font-family="Verdana">Phản hồi hợp lệ?</text><text x="965.053" y="706.432" fill="#000" font-size="11" textLength="34.869" font-family="Verdana">Không</text><text x="1114.833" y="706.432" fill="#000" font-size="11" textLength="14.411" font-family="Verdana">Có</text><rect x="1061.653" y="741.026" width="259.326" height="33.969" fill="#FFF" style="stroke:#000;stroke-width:1;" rx="12.5" ry="12.5"/><text x="1071.653" y="762.165" fill="#000" font-size="12" textLength="239.326" font-family="Verdana">Lưu phiên học, nhiệm vụ và từ mục tiêu</text><rect x="959.695" y="1108.581" width="195.365" height="33.969" fill="#FFF" style="stroke:#000;stroke-width:1;" rx="12.5" ry="12.5"/><text x="969.695" y="1129.719" fill="#000" font-size="12" textLength="175.365" font-family="Verdana">Kiểm tra nội dung và mã lượt</text><polygon points="1007.306,1162.549,1107.45,1162.549,1119.45,1174.549,1107.45,1186.549,1007.306,1186.549,995.306,1174.549,1007.306,1162.549" fill="#FFF" style="stroke:#000;stroke-width:1;stroke-linejoin:miter;stroke-miterlimit:10;"/><text x="1007.306" y="1178.357" fill="#000" font-size="11" textLength="100.144" font-family="Verdana">Câu trả lời hợp lệ?</text><text x="960.437" y="1171.955" fill="#000" font-size="11" textLength="34.869" font-family="Verdana">Không</text><text x="1119.45" y="1171.955" fill="#000" font-size="11" textLength="14.411" font-family="Verdana">Có</text><rect x="1067.88" y="1206.549" width="233.598" height="33.969" fill="#FFF" style="stroke:#000;stroke-width:1;" rx="12.5" ry="12.5"/><text x="1077.88" y="1227.688" fill="#000" font-size="12" textLength="213.598" font-family="Verdana">Chuẩn bị bối cảnh hội thoại hiện tại</text><rect x="1087.298" y="1314.487" width="194.762" height="33.969" fill="#FFF" style="stroke:#000;stroke-width:1;" rx="12.5" ry="12.5"/><text x="1097.298" y="1335.625" fill="#000" font-size="12" textLength="174.762" font-family="Verdana">Kiểm tra và lưu lượt hội thoại</text><rect x="1079.183" y="1368.456" width="210.992" height="33.969" fill="#FFF" style="stroke:#000;stroke-width:1;" rx="12.5" ry="12.5"/><text x="1089.183" y="1389.594" fill="#000" font-size="12" textLength="190.992" font-family="Verdana">Cập nhật từ mục tiêu và tiến độ</text><polygon points="1057.378,1466.393,1069.378,1478.393,1057.378,1490.393,1045.378,1478.393,1057.378,1466.393" fill="#FFF" style="stroke:#000;stroke-width:1;stroke-linejoin:miter;stroke-miterlimit:10;"/><polygon points="993.755,890.964,1121.001,890.964,1133.001,902.964,1121.001,914.964,993.755,914.964,981.755,902.964,993.755,890.964" fill="#FFF" style="stroke:#000;stroke-width:1;stroke-linejoin:miter;stroke-miterlimit:10;"/><text x="1061.378" y="925.174" fill="#000" font-size="11" textLength="14.411" font-family="Verdana">Có</text><text x="993.755" y="906.772" fill="#000" font-size="11" textLength="127.247" font-family="Verdana">Nhiệm vụ còn tiếp tục?</text><text x="946.885" y="900.37" fill="#000" font-size="11" textLength="34.869" font-family="Verdana">Không</text><rect x="940.822" y="1532.393" width="233.111" height="33.969" fill="#FFF" style="stroke:#000;stroke-width:1;" rx="12.5" ry="12.5"/><text x="950.822" y="1553.532" fill="#000" font-size="12" textLength="213.111" font-family="Verdana">Tính điểm và hoàn thành phiên học</text><line x1="879.548" y1="59.354" x2="879.548" y2="1716.299" style="stroke:#000;stroke-width:1;"/><rect x="1348.478" y="589.089" width="203.557" height="33.969" fill="#FFF" style="stroke:#000;stroke-width:1;" rx="12.5" ry="12.5"/><text x="1358.478" y="610.228" fill="#000" font-size="12" textLength="183.557" font-family="Verdana">Tạo tình huống và câu mở đầu</text><rect x="1490.87" y="1260.518" width="173.375" height="33.969" fill="#FFF" style="stroke:#000;stroke-width:1;" rx="12.5" ry="12.5"/><text x="1500.87" y="1281.657" fill="#000" font-size="12" textLength="153.375" font-family="Verdana">Tạo phản hồi và nhận xét</text><line x1="1342.478" y1="59.354" x2="1342.478" y2="1716.299" style="stroke:#000;stroke-width:1;"/><line x1="1668.245" y1="59.354" x2="1668.245" y2="1716.299" style="stroke:#000;stroke-width:1;"/><line x1="273.152" y1="105.308" x2="273.152" y2="125.308" style="stroke:#000;stroke-width:1;"/><polygon points="269.152,115.308,273.152,125.308,277.152,115.308,273.152,119.308" fill="#000" style="stroke:#000;stroke-width:1;stroke-linejoin:miter;stroke-miterlimit:10;"/><line x1="134.305" y1="527.089" x2="134.305" y2="547.089" style="stroke:#000;stroke-width:1;"/><polygon points="130.305,537.089,134.305,547.089,138.305,537.089,134.305,541.089" fill="#000" style="stroke:#000;stroke-width:1;stroke-linejoin:miter;stroke-miterlimit:10;"/><line x1="139.214" y1="828.964" x2="139.214" y2="848.964" style="stroke:#000;stroke-width:1;"/><polygon points="135.214,838.964,139.214,848.964,143.214,838.964,139.214,842.964" fill="#000" style="stroke:#000;stroke-width:1;stroke-linejoin:miter;stroke-miterlimit:10;"/><line x1="273.152" y1="1674.299" x2="273.152" y2="1694.299" style="stroke:#000;stroke-width:1;"/><polygon points="269.152,1684.299,273.152,1694.299,277.152,1684.299,273.152,1688.299" fill="#000" style="stroke:#000;stroke-width:1;stroke-linejoin:miter;stroke-miterlimit:10;"/><line x1="1121.537" y1="407.151" x2="1196.225" y2="407.151" style="stroke:#000;stroke-width:1;"/><line x1="1196.225" y1="407.151" x2="1196.225" y2="439.151" style="stroke:#000;stroke-width:1;"/><polygon points="1192.225,429.151,1196.225,439.151,1200.225,429.151,1196.225,433.151" fill="#000" style="stroke:#000;stroke-width:1;stroke-linejoin:miter;stroke-miterlimit:10;"/><line x1="1196.225" y1="473.12" x2="1196.225" y2="574.089" style="stroke:#000;stroke-width:1;"/><line x1="1196.225" y1="574.089" x2="1450.256" y2="574.089" style="stroke:#000;stroke-width:1;"/><line x1="1450.256" y1="574.089" x2="1450.256" y2="589.089" style="stroke:#000;stroke-width:1;"/><polygon points="1446.256,579.089,1450.256,589.089,1454.256,579.089,1450.256,583.089" fill="#000" style="stroke:#000;stroke-width:1;stroke-linejoin:miter;stroke-miterlimit:10;"/><line x1="1057.378" y1="375.151" x2="1057.378" y2="395.151" style="stroke:#000;stroke-width:1;"/><polygon points="1053.378,385.151,1057.378,395.151,1061.378,385.151,1057.378,389.151" fill="#000" style="stroke:#000;stroke-width:1;stroke-linejoin:miter;stroke-miterlimit:10;"/><line x1="1114.833" y1="709.026" x2="1191.316" y2="709.026" style="stroke:#000;stroke-width:1;"/><line x1="1191.316" y1="709.026" x2="1191.316" y2="741.026" style="stroke:#000;stroke-width:1;"/><polygon points="1187.316,731.026,1191.316,741.026,1195.316,731.026,1191.316,735.026" fill="#000" style="stroke:#000;stroke-width:1;stroke-linejoin:miter;stroke-miterlimit:10;"/><line x1="1191.316" y1="774.995" x2="1191.316" y2="875.964" style="stroke:#000;stroke-width:1;"/><line x1="1191.316" y1="875.964" x2="1057.378" y2="875.964" style="stroke:#000;stroke-width:1;"/><line x1="1057.378" y1="875.964" x2="1057.378" y2="890.964" style="stroke:#000;stroke-width:1;"/><polygon points="1053.378,880.964,1057.378,890.964,1061.378,880.964,1057.378,884.964" fill="#000" style="stroke:#000;stroke-width:1;stroke-linejoin:miter;stroke-miterlimit:10;"/><line x1="1057.378" y1="677.026" x2="1057.378" y2="697.026" style="stroke:#000;stroke-width:1;"/><polygon points="1053.378,687.026,1057.378,697.026,1061.378,687.026,1057.378,691.026" fill="#000" style="stroke:#000;stroke-width:1;stroke-linejoin:miter;stroke-miterlimit:10;"/><line x1="1184.679" y1="1348.456" x2="1184.679" y2="1368.456" style="stroke:#000;stroke-width:1;"/><polygon points="1180.679,1358.456,1184.679,1368.456,1188.679,1358.456,1184.679,1362.456" fill="#000" style="stroke:#000;stroke-width:1;stroke-linejoin:miter;stroke-miterlimit:10;"/><line x1="1119.45" y1="1174.549" x2="1184.679" y2="1174.549" style="stroke:#000;stroke-width:1;"/><line x1="1184.679" y1="1174.549" x2="1184.679" y2="1206.549" style="stroke:#000;stroke-width:1;"/><polygon points="1180.679,1196.549,1184.679,1206.549,1188.679,1196.549,1184.679,1200.549" fill="#000" style="stroke:#000;stroke-width:1;stroke-linejoin:miter;stroke-miterlimit:10;"/><line x1="1057.378" y1="1142.549" x2="1057.378" y2="1162.549" style="stroke:#000;stroke-width:1;"/><polygon points="1053.378,1152.549,1057.378,1162.549,1061.378,1152.549,1057.378,1156.549" fill="#000" style="stroke:#000;stroke-width:1;stroke-linejoin:miter;stroke-miterlimit:10;"/><line x1="1057.378" y1="1490.393" x2="1057.378" y2="1500.393" style="stroke:#000;stroke-width:1;"/><line x1="1057.378" y1="1500.393" x2="1323.478" y2="1500.393" style="stroke:#000;stroke-width:1;"/><polygon points="1319.478,1210.131,1323.478,1200.131,1327.478,1210.131,1323.478,1206.131" fill="#000" style="stroke:#000;stroke-width:1;stroke-linejoin:miter;stroke-miterlimit:10;"/><line x1="1323.478" y1="902.964" x2="1323.478" y2="1500.393" style="stroke:#000;stroke-width:1;"/><line x1="1323.478" y1="902.964" x2="1133.001" y2="902.964" style="stroke:#000;stroke-width:1;"/><polygon points="1143.001,898.964,1133.001,902.964,1143.001,906.964,1139.001,902.964" fill="#000" style="stroke:#000;stroke-width:1;stroke-linejoin:miter;stroke-miterlimit:10;"/><line x1="981.755" y1="902.964" x2="898.548" y2="902.964" style="stroke:#000;stroke-width:1;"/><polygon points="894.548,1196.131,898.548,1206.131,902.548,1196.131,898.548,1200.131" fill="#000" style="stroke:#000;stroke-width:1;stroke-linejoin:miter;stroke-miterlimit:10;"/><line x1="898.548" y1="902.964" x2="898.548" y2="1512.393" style="stroke:#000;stroke-width:1;"/><line x1="898.548" y1="1512.393" x2="1057.378" y2="1512.393" style="stroke:#000;stroke-width:1;"/><line x1="1057.378" y1="1512.393" x2="1057.378" y2="1532.393" style="stroke:#000;stroke-width:1;"/><polygon points="1053.378,1522.393,1057.378,1532.393,1061.378,1522.393,1057.378,1526.393" fill="#000" style="stroke:#000;stroke-width:1;stroke-linejoin:miter;stroke-miterlimit:10;"/><line x1="273.152" y1="159.276" x2="273.152" y2="164.276" style="stroke:#000;stroke-width:1;"/><line x1="273.152" y1="164.276" x2="659.01" y2="164.276" style="stroke:#000;stroke-width:1;"/><line x1="659.01" y1="164.276" x2="659.01" y2="179.276" style="stroke:#000;stroke-width:1;"/><polygon points="655.01,169.276,659.01,179.276,663.01,169.276,659.01,173.276" fill="#000" style="stroke:#000;stroke-width:1;stroke-linejoin:miter;stroke-miterlimit:10;"/><line x1="659.01" y1="213.245" x2="659.01" y2="218.245" style="stroke:#000;stroke-width:1;"/><line x1="659.01" y1="218.245" x2="273.152" y2="218.245" style="stroke:#000;stroke-width:1;"/><line x1="273.152" y1="218.245" x2="273.152" y2="233.245" style="stroke:#000;stroke-width:1;"/><polygon points="269.152,223.245,273.152,233.245,277.152,223.245,273.152,227.245" fill="#000" style="stroke:#000;stroke-width:1;stroke-linejoin:miter;stroke-miterlimit:10;"/><line x1="273.152" y1="267.214" x2="273.152" y2="272.214" style="stroke:#000;stroke-width:1;"/><line x1="273.152" y1="272.214" x2="659.01" y2="272.214" style="stroke:#000;stroke-width:1;"/><line x1="659.01" y1="272.214" x2="659.01" y2="287.214" style="stroke:#000;stroke-width:1;"/><polygon points="655.01,277.214,659.01,287.214,663.01,277.214,659.01,281.214" fill="#000" style="stroke:#000;stroke-width:1;stroke-linejoin:miter;stroke-miterlimit:10;"/><line x1="659.01" y1="321.183" x2="659.01" y2="326.183" style="stroke:#000;stroke-width:1;"/><line x1="659.01" y1="326.183" x2="1057.378" y2="326.183" style="stroke:#000;stroke-width:1;"/><line x1="1057.378" y1="326.183" x2="1057.378" y2="341.183" style="stroke:#000;stroke-width:1;"/><polygon points="1053.378,331.183,1057.378,341.183,1061.378,331.183,1057.378,335.183" fill="#000" style="stroke:#000;stroke-width:1;stroke-linejoin:miter;stroke-miterlimit:10;"/><line x1="520.163" y1="473.12" x2="520.163" y2="478.12" style="stroke:#000;stroke-width:1;"/><line x1="520.163" y1="478.12" x2="134.305" y2="478.12" style="stroke:#000;stroke-width:1;"/><line x1="134.305" y1="478.12" x2="134.305" y2="493.12" style="stroke:#000;stroke-width:1;"/><polygon points="130.305,483.12,134.305,493.12,138.305,483.12,134.305,487.12" fill="#000" style="stroke:#000;stroke-width:1;stroke-linejoin:miter;stroke-miterlimit:10;"/><line x1="993.219" y1="407.151" x2="520.163" y2="407.151" style="stroke:#000;stroke-width:1;"/><line x1="520.163" y1="407.151" x2="520.163" y2="439.151" style="stroke:#000;stroke-width:1;"/><polygon points="516.163,429.151,520.163,439.151,524.163,429.151,520.163,433.151" fill="#000" style="stroke:#000;stroke-width:1;stroke-linejoin:miter;stroke-miterlimit:10;"/><line x1="1450.256" y1="623.058" x2="1450.256" y2="628.058" style="stroke:#000;stroke-width:1;"/><line x1="1450.256" y1="628.058" x2="1057.378" y2="628.058" style="stroke:#000;stroke-width:1;"/><line x1="1057.378" y1="628.058" x2="1057.378" y2="643.058" style="stroke:#000;stroke-width:1;"/><polygon points="1053.378,633.058,1057.378,643.058,1061.378,633.058,1057.378,637.058" fill="#000" style="stroke:#000;stroke-width:1;stroke-linejoin:miter;stroke-miterlimit:10;"/><line x1="525.072" y1="774.995" x2="525.072" y2="779.995" style="stroke:#000;stroke-width:1;"/><line x1="525.072" y1="779.995" x2="139.214" y2="779.995" style="stroke:#000;stroke-width:1;"/><line x1="139.214" y1="779.995" x2="139.214" y2="794.995" style="stroke:#000;stroke-width:1;"/><polygon points="135.214,784.995,139.214,794.995,143.214,784.995,139.214,788.995" fill="#000" style="stroke:#000;stroke-width:1;stroke-linejoin:miter;stroke-miterlimit:10;"/><line x1="999.922" y1="709.026" x2="525.072" y2="709.026" style="stroke:#000;stroke-width:1;"/><line x1="525.072" y1="709.026" x2="525.072" y2="741.026" style="stroke:#000;stroke-width:1;"/><polygon points="521.072,731.026,525.072,741.026,529.072,731.026,525.072,735.026" fill="#000" style="stroke:#000;stroke-width:1;stroke-linejoin:miter;stroke-miterlimit:10;"/><line x1="659.01" y1="980.643" x2="659.01" y2="985.643" style="stroke:#000;stroke-width:1;"/><line x1="659.01" y1="985.643" x2="273.152" y2="985.643" style="stroke:#000;stroke-width:1;"/><line x1="273.152" y1="985.643" x2="273.152" y2="1000.643" style="stroke:#000;stroke-width:1;"/><polygon points="269.152,990.643,273.152,1000.643,277.152,990.643,273.152,994.643" fill="#000" style="stroke:#000;stroke-width:1;stroke-linejoin:miter;stroke-miterlimit:10;"/><line x1="273.152" y1="1034.612" x2="273.152" y2="1039.612" style="stroke:#000;stroke-width:1;"/><line x1="273.152" y1="1039.612" x2="659.01" y2="1039.612" style="stroke:#000;stroke-width:1;"/><line x1="659.01" y1="1039.612" x2="659.01" y2="1054.612" style="stroke:#000;stroke-width:1;"/><polygon points="655.01,1044.612,659.01,1054.612,663.01,1044.612,659.01,1048.612" fill="#000" style="stroke:#000;stroke-width:1;stroke-linejoin:miter;stroke-miterlimit:10;"/><line x1="659.01" y1="1088.581" x2="659.01" y2="1093.581" style="stroke:#000;stroke-width:1;"/><line x1="659.01" y1="1093.581" x2="1057.378" y2="1093.581" style="stroke:#000;stroke-width:1;"/><line x1="1057.378" y1="1093.581" x2="1057.378" y2="1108.581" style="stroke:#000;stroke-width:1;"/><polygon points="1053.378,1098.581,1057.378,1108.581,1061.378,1098.581,1057.378,1102.581" fill="#000" style="stroke:#000;stroke-width:1;stroke-linejoin:miter;stroke-miterlimit:10;"/><line x1="1184.679" y1="1240.518" x2="1184.679" y2="1245.518" style="stroke:#000;stroke-width:1;"/><line x1="1184.679" y1="1245.518" x2="1577.558" y2="1245.518" style="stroke:#000;stroke-width:1;"/><line x1="1577.558" y1="1245.518" x2="1577.558" y2="1260.518" style="stroke:#000;stroke-width:1;"/><polygon points="1573.558,1250.518,1577.558,1260.518,1581.558,1250.518,1577.558,1254.518" fill="#000" style="stroke:#000;stroke-width:1;stroke-linejoin:miter;stroke-miterlimit:10;"/><line x1="1577.558" y1="1294.487" x2="1577.558" y2="1299.487" style="stroke:#000;stroke-width:1;"/><line x1="1577.558" y1="1299.487" x2="1184.679" y2="1299.487" style="stroke:#000;stroke-width:1;"/><line x1="1184.679" y1="1299.487" x2="1184.679" y2="1314.487" style="stroke:#000;stroke-width:1;"/><polygon points="1180.679,1304.487,1184.679,1314.487,1188.679,1304.487,1184.679,1308.487" fill="#000" style="stroke:#000;stroke-width:1;stroke-linejoin:miter;stroke-miterlimit:10;"/><line x1="1184.679" y1="1402.424" x2="1184.679" y2="1407.424" style="stroke:#000;stroke-width:1;"/><line x1="1184.679" y1="1407.424" x2="786.312" y2="1407.424" style="stroke:#000;stroke-width:1;"/><line x1="786.312" y1="1407.424" x2="786.312" y2="1422.424" style="stroke:#000;stroke-width:1;"/><polygon points="782.312,1412.424,786.312,1422.424,790.312,1412.424,786.312,1416.424" fill="#000" style="stroke:#000;stroke-width:1;stroke-linejoin:miter;stroke-miterlimit:10;"/><line x1="995.306" y1="1174.549" x2="531.709" y2="1174.549" style="stroke:#000;stroke-width:1;"/><line x1="531.709" y1="1174.549" x2="531.709" y2="1206.549" style="stroke:#000;stroke-width:1;"/><polygon points="527.709,1196.549,531.709,1206.549,535.709,1196.549,531.709,1200.549" fill="#000" style="stroke:#000;stroke-width:1;stroke-linejoin:miter;stroke-miterlimit:10;"/><line x1="531.709" y1="1240.518" x2="531.709" y2="1478.393" style="stroke:#000;stroke-width:1;"/><line x1="531.709" y1="1478.393" x2="1045.378" y2="1478.393" style="stroke:#000;stroke-width:1;"/><polygon points="1035.378,1474.393,1045.378,1478.393,1035.378,1482.393,1039.378,1478.393" fill="#000" style="stroke:#000;stroke-width:1;stroke-linejoin:miter;stroke-miterlimit:10;"/><line x1="786.312" y1="1456.393" x2="786.312" y2="1460.393" style="stroke:#000;stroke-width:1;"/><line x1="786.312" y1="1460.393" x2="1087.378" y2="1460.393" style="stroke:#000;stroke-width:1;"/><line x1="1087.378" y1="1460.393" x2="1087.378" y2="1478.393" style="stroke:#000;stroke-width:1;"/><line x1="1087.378" y1="1478.393" x2="1069.378" y2="1478.393" style="stroke:#000;stroke-width:1;"/><polygon points="1079.378,1474.393,1069.378,1478.393,1079.378,1482.393,1075.378,1478.393" fill="#000" style="stroke:#000;stroke-width:1;stroke-linejoin:miter;stroke-miterlimit:10;"/><line x1="1057.378" y1="914.964" x2="1057.378" y2="931.674" style="stroke:#000;stroke-width:1;"/><line x1="1057.378" y1="931.674" x2="659.01" y2="931.674" style="stroke:#000;stroke-width:1;"/><line x1="659.01" y1="931.674" x2="659.01" y2="946.674" style="stroke:#000;stroke-width:1;"/><polygon points="655.01,936.674,659.01,946.674,663.01,936.674,659.01,940.674" fill="#000" style="stroke:#000;stroke-width:1;stroke-linejoin:miter;stroke-miterlimit:10;"/><line x1="1057.378" y1="1566.362" x2="1057.378" y2="1571.362" style="stroke:#000;stroke-width:1;"/><line x1="1057.378" y1="1571.362" x2="659.01" y2="1571.362" style="stroke:#000;stroke-width:1;"/><line x1="659.01" y1="1571.362" x2="659.01" y2="1586.362" style="stroke:#000;stroke-width:1;"/><polygon points="655.01,1576.362,659.01,1586.362,663.01,1576.362,659.01,1580.362" fill="#000" style="stroke:#000;stroke-width:1;stroke-linejoin:miter;stroke-miterlimit:10;"/><line x1="659.01" y1="1620.331" x2="659.01" y2="1625.331" style="stroke:#000;stroke-width:1;"/><line x1="659.01" y1="1625.331" x2="273.152" y2="1625.331" style="stroke:#000;stroke-width:1;"/><line x1="273.152" y1="1625.331" x2="273.152" y2="1640.331" style="stroke:#000;stroke-width:1;"/><polygon points="269.152,1630.331,273.152,1640.331,277.152,1630.331,273.152,1634.331" fill="#000" style="stroke:#000;stroke-width:1;stroke-linejoin:miter;stroke-miterlimit:10;"/><text x="154.161" y="76.063" fill="#000" font-size="18" textLength="103.702" font-family="Verdana">Người dùng</text><text x="553.287" y="76.063" fill="#000" font-size="18" textLength="169.998" font-family="Verdana">Giao diện hội thoại</text><text x="1069.691" y="76.063" fill="#000" font-size="18" textLength="82.644" font-family="Verdana">Hệ thống</text><text x="1459.716" y="76.063" fill="#000" font-size="18" textLength="91.292" font-family="Verdana">Dịch vụ AI</text><?plantuml-src fLNDJjj04BxxAQQt8FK9uaE5Q0KL1HKrXruTstXN91itNjD6ub9nG1NY4FN4eG8Q8KJRIA5KgXghwc4Hx-4twSpO2F-4KDJBHl7EppVVV3FxI0k_wqFOSQIojDGT7pRY0UY--QO4Q94c5ou8cIPx2fwfe2CZ0MioYcHFMTREUd0zIPDF4ZppImKxLgITlhQQQsboLBK6dIPVuPMElG6in6qRlPUbqmClYus93YNcwwNJ4xbZDLVmywvY0FlWEOWbCYUk01S_dC7LC4tUspC0D9Vm_a0LpI2WD5gcqp_XVLcNqsGiOM2-nE2cqxCOjj3Y22tmlWUAUUZ2TfgSKgGL_CS8XvnwbI1taJe7tiG3p8pm-yWbHXg7i6sE6TL1paGNWxW82tFPbjo4nfAvPC1djVid2vZ5Lz1O5UQ72XOiW7bL03HRR0XjWwZRU4iefmdclvuuUHB5Jbwi0flYLOd481knCu0EnIos3I3IlT3oEv7Fc1bDcGdqNH9nEZrNb7oVZg4a6aROHkAXGF0iPdtboKtazoawOylf8om-HuPRRAnPcfY0icMyciyn4NP4jM7K-Sq91I4XrZxAKeEpFhmiNkCv2f64PE__cf0nJt1sPvOykmCjj1_dBOYS62ZuJnVLXOtP9ca_k2ylhYSn4e2gOiG7xkCI46QpBi-y8M-5nFNGM2ywkEQxoeUB74zTv4b6jmZcKrIQyffCEbd_8oAXv7iNN-k2HutbeFiOY4AWHJkTNc0d62R-BYfXtuyjsmNLMFPCMWlgkfqhhg5hq960ZZIvPeDUWJTNPFVXh0YDXdiNL8aRtZiVLCQaGp1AAfbHqDm9Ba6uUHlqJLymMdLkCv2i-jBi4J-AMgRWdJdNzfrO2lIoBaZ4EQbrOH1sbW67rZKvPnfdAJ1RX_Q_iLpIQgsEm5o6O7upkJmjUERpSjFBsavgcJ7IUJNCggCeecUEAGMUeZIc3tekjx0sZLk255PziseFvck_cr5qDKIfygnvQ5lShBIf5M0HsIgoBTeqVm40?></g></svg>